<svg width="395" height="413" viewBox="0 0 395 413" fill="none" xmlns="http://www.w3.org/2000/svg">
<g filter="url(#filter0_ii_455_8)">
<path d="M230.473 2.50049C232.864 1.11978 235.922 1.93915 237.303 4.33062L310.015 130.272C310.022 130.283 310.028 130.293 310.035 130.304L392.304 272.798C393.684 275.189 392.865 278.247 390.474 279.628L379.987 285.683C377.595 287.064 374.537 286.244 373.156 283.853L297.108 152.132L85.7813 274.142C83.3899 275.522 80.3319 274.703 78.9512 272.311L2.5 139.894C1.11929 137.503 1.93866 134.445 4.33013 133.064L230.473 2.50049Z" fill="url(#paint0_linear_455_8)"/>
<g filter="url(#filter1_d_455_8)">
<path d="M76.1817 186.266L56.0217 151.348L63.4418 147.064L84.0911 154.605L87.836 132.98L95.3046 128.668L115.465 163.586L108.432 167.646L94.2925 143.154L90.3912 165.517L69.0533 157.791L83.1653 182.234L76.1817 186.266ZM120.98 160.401L104.74 132.273L111.627 128.297L127.867 156.425L120.98 160.401ZM103.424 129.993L99.4204 123.058L106.307 119.082L110.311 126.017L103.424 129.993ZM133.581 153.126L117.341 124.998L139.019 112.482C140.28 111.754 141.614 111.415 143.022 111.464C144.412 111.481 145.712 111.829 146.924 112.509C148.135 113.189 149.096 114.143 149.805 115.372L162.097 136.662L155.211 140.638L143.115 119.687C143.077 119.623 143.008 119.577 142.906 119.549C142.836 119.503 142.753 119.508 142.656 119.564L128.494 127.74C128.43 127.778 128.384 127.847 128.356 127.949C128.329 128.051 128.334 128.135 128.371 128.199L140.467 149.15L133.581 153.126ZM167.252 133.686L151.012 105.558L157.899 101.582L174.139 129.71L167.252 133.686ZM149.696 103.278L145.692 96.3433L152.579 92.3672L156.583 99.3024L149.696 103.278ZM193.781 118.37L173.621 83.4517L205.823 64.8597L209.883 71.8918L184.761 86.3958L188.737 93.2824L208.961 81.6064L213.049 88.6871L192.825 100.363L200.861 114.282L193.781 118.37ZM237.363 93.2075L223.139 68.5708L222.545 72.4701L213.379 77.7621L216.767 58.5413L224.138 54.2853L244.298 89.2035L237.363 93.2075ZM138.948 201.989L125.988 179.542L143.914 169.192C144.746 168.712 145.614 168.488 146.519 168.519C147.433 168.518 148.296 168.741 149.107 169.187C149.907 169.612 150.547 170.24 151.027 171.071L158.803 184.54C159.283 185.371 159.513 186.25 159.493 187.176C159.462 188.081 159.223 188.939 158.777 189.751C158.34 190.53 157.706 191.159 156.874 191.639L138.948 201.989ZM140.983 194.787L154.046 187.245C154.108 187.209 154.144 187.174 154.153 187.142C154.17 187.076 154.161 187.012 154.125 186.95L146.601 173.918C146.565 173.855 146.52 173.826 146.467 173.829C146.422 173.799 146.368 173.803 146.306 173.839L133.243 181.381C133.201 181.405 133.172 181.449 133.154 181.515C133.125 181.56 133.128 181.613 133.164 181.676L140.688 194.708C140.724 194.77 140.775 194.81 140.84 194.828C140.894 194.824 140.941 194.811 140.983 194.787ZM169.157 184.548C168.368 185.004 167.516 185.232 166.602 185.233C165.697 185.202 164.855 184.967 164.076 184.53C163.297 184.093 162.68 183.479 162.224 182.69L158.246 175.8L172.15 167.772L170.89 165.589C170.866 165.548 170.822 165.518 170.756 165.5C170.691 165.483 170.637 165.486 170.595 165.51L156.878 173.43L154.322 169.003L168.258 160.957C169.068 160.489 169.926 160.271 170.831 160.303C171.724 160.313 172.56 160.537 173.339 160.975C174.118 161.412 174.736 162.025 175.192 162.815L183.094 176.502L169.157 184.548ZM166.82 179.995L176.11 174.631L174.436 171.731L164.959 177.203L166.525 179.915C166.549 179.957 166.593 179.987 166.659 180.004C166.725 180.022 166.778 180.019 166.82 179.995ZM189.98 172.526C189.19 172.982 188.348 173.204 187.455 173.194C186.55 173.162 185.698 172.933 184.898 172.508C184.119 172.071 183.502 171.458 183.046 170.668L182.578 169.857L187.005 167.301L187.347 167.894C187.371 167.935 187.416 167.965 187.481 167.982C187.547 168 187.6 167.997 187.642 167.973L196.746 162.717C196.787 162.693 196.817 162.648 196.834 162.582C196.852 162.517 196.849 162.463 196.825 162.422L195.655 160.395C195.631 160.354 195.592 160.334 195.538 160.338C195.473 160.32 195.419 160.323 195.378 160.347L186.056 165.729C185.266 166.185 184.424 166.408 183.531 166.397C182.626 166.365 181.774 166.137 180.974 165.712C180.195 165.275 179.572 164.651 179.104 163.84L177.682 161.377C177.226 160.587 177.003 159.746 177.014 158.853C177.046 157.948 177.28 157.106 177.717 156.327C178.142 155.527 178.75 154.899 179.54 154.443L189.08 148.935C189.89 148.467 190.748 148.249 191.653 148.281C192.547 148.292 193.383 148.516 194.161 148.953C194.961 149.378 195.589 149.985 196.045 150.775L196.513 151.586L192.055 154.16L191.713 153.567C191.689 153.526 191.644 153.496 191.578 153.479C191.513 153.461 191.459 153.464 191.418 153.488L182.314 158.744C182.272 158.768 182.243 158.813 182.225 158.879C182.208 158.944 182.211 158.998 182.235 159.039L183.405 161.066C183.429 161.108 183.474 161.137 183.539 161.155C183.593 161.151 183.64 161.138 183.682 161.114L193.004 155.732C193.814 155.264 194.672 155.046 195.577 155.077C196.471 155.088 197.307 155.312 198.085 155.749C198.885 156.174 199.519 156.792 199.987 157.603L201.409 160.066C201.865 160.856 202.077 161.703 202.045 162.608C202.035 163.501 201.817 164.348 201.391 165.148C200.954 165.926 200.33 166.55 199.52 167.018L189.98 172.526ZM207.144 162.616L193.284 138.61L197.711 136.054L201.131 141.977L210.64 136.487C211.43 136.031 212.277 135.819 213.183 135.851C214.076 135.862 214.912 136.086 215.691 136.523C216.49 136.948 217.118 137.556 217.574 138.345L225.476 152.032L221.049 154.588L213.273 141.12C213.249 141.078 213.204 141.048 213.139 141.031C213.094 141.001 213.04 141.005 212.978 141.041L203.874 146.297C203.833 146.321 203.803 146.365 203.786 146.431C203.768 146.496 203.771 146.55 203.795 146.592L211.571 160.06L207.144 162.616Z" fill="#F1F1F1"/>
</g>
</g>
<defs>
<filter id="filter0_ii_455_8" x="1.82935" y="-6.17039" width="391.145" height="300.523" filterUnits="userSpaceOnUse" color-interpolation-filters="sRGB">
<feFlood flood-opacity="0" result="BackgroundImageFix"/>
<feBlend mode="normal" in="SourceGraphic" in2="BackgroundImageFix" result="shape"/>
<feColorMatrix in="SourceAlpha" type="matrix" values="0 0 0 0 0 0 0 0 0 0 0 0 0 0 0 0 0 0 127 0" result="hardAlpha"/>
<feOffset dy="-8"/>
<feGaussianBlur stdDeviation="6"/>
<feComposite in2="hardAlpha" operator="arithmetic" k2="-1" k3="1"/>
<feColorMatrix type="matrix" values="0 0 0 0 0 0 0 0 0 0 0 0 0 0 0 0 0 0 0.25 0"/>
<feBlend mode="normal" in2="shape" result="effect1_innerShadow_455_8"/>
<feColorMatrix in="SourceAlpha" type="matrix" values="0 0 0 0 0 0 0 0 0 0 0 0 0 0 0 0 0 0 127 0" result="hardAlpha"/>
<feOffset dy="8"/>
<feGaussianBlur stdDeviation="6"/>
<feComposite in2="hardAlpha" operator="arithmetic" k2="-1" k3="1"/>
<feColorMatrix type="matrix" values="0 0 0 0 0 0 0 0 0 0 0 0 0 0 0 0 0 0 0.25 0"/>
<feBlend mode="normal" in2="effect1_innerShadow_455_8" result="effect2_innerShadow_455_8"/>
</filter>
<filter id="filter1_d_455_8" x="54.6217" y="51.8609" width="216.177" height="177.375" filterUnits="userSpaceOnUse" color-interpolation-filters="sRGB">
<feFlood flood-opacity="0" result="BackgroundImageFix"/>
<feColorMatrix in="SourceAlpha" type="matrix" values="0 0 0 0 0 0 0 0 0 0 0 0 0 0 0 0 0 0 127 0" result="hardAlpha"/>
<feOffset dx="2" dy="2"/>
<feGaussianBlur stdDeviation="1"/>
<feComposite in2="hardAlpha" operator="out"/>
<feColorMatrix type="matrix" values="0 0 0 0 0 0 0 0 0 0 0 0 0 0 0 0 0 0 0.25 0"/>
<feBlend mode="normal" in2="BackgroundImageFix" result="effect1_dropShadow_455_8"/>
<feBlend mode="normal" in="SourceGraphic" in2="effect1_dropShadow_455_8" result="shape"/>
</filter>
<linearGradient id="paint0_linear_455_8" x1="8.68422" y1="150.605" x2="362.686" y2="313.128" gradientUnits="userSpaceOnUse">
<stop stop-color="#FF0700"/>
<stop offset="0.413462" stop-color="#FF0077"/>
<stop offset="1" stop-color="#FF0700"/>
</linearGradient>
</defs>
</svg>
